<!-- Generator: Adobe Illustrator 23.0.6, SVG Export Plug-In  -->
<svg version="1.1" xmlns="http://www.w3.org/2000/svg" xmlns:xlink="http://www.w3.org/1999/xlink" x="0px" y="0px"
	 width="2104.7px" height="680.7px" viewBox="0 0 2104.7 680.7" style="enable-background:new 0 0 2104.7 680.7;"
	 xml:space="preserve">
<style type="text/css">
	.st0{fill:#fff;}
</style>
<defs>
</defs>
<g>
	
		<rect x="1131.2" y="339.9" transform="matrix(0.7071 -0.7071 0.7071 0.7071 231.4775 1239.5432)" class="st0" width="961.7" height="1"/>
	
		<rect x="1163.2" y="339.9" transform="matrix(0.7071 -0.7071 0.7071 0.7071 240.8501 1262.1707)" class="st0" width="961.7" height="1"/>
	
		<rect x="1195.2" y="339.9" transform="matrix(0.7071 -0.7071 0.7071 0.7071 250.2227 1284.798)" class="st0" width="961.7" height="1"/>
	
		<rect x="1227.2" y="339.9" transform="matrix(0.7071 -0.7071 0.7071 0.7071 259.5953 1307.4254)" class="st0" width="961.7" height="1"/>
	
		<rect x="1259.2" y="339.9" transform="matrix(0.7071 -0.7071 0.7071 0.7071 268.9679 1330.0529)" class="st0" width="961.7" height="1"/>
	<polygon class="st0" points="1431.6,680 1432.4,680.7 2104.7,8.3 2104.7,6.9 	"/>
	<polygon class="st0" points="1463.6,680 1464.4,680.7 2104.7,40.3 2104.7,38.9 	"/>
	<polygon class="st0" points="1495.6,680 1496.4,680.7 2104.7,72.3 2104.7,70.9 	"/>
	<polygon class="st0" points="1527.6,680 1528.4,680.7 2104.7,104.3 2104.7,102.9 	"/>
	<polygon class="st0" points="1559.6,680 1560.4,680.7 2104.7,136.3 2104.7,134.9 	"/>
	<polygon class="st0" points="1591.6,680 1592.4,680.7 2104.7,168.3 2104.7,166.9 	"/>
	<polygon class="st0" points="1623.6,680 1624.4,680.7 2104.7,200.3 2104.7,198.9 	"/>
	<polygon class="st0" points="1655.6,680 1656.4,680.7 2104.7,232.3 2104.7,230.9 	"/>
	<polygon class="st0" points="1687.6,680 1688.4,680.7 2104.7,264.3 2104.7,262.9 	"/>
	<polygon class="st0" points="1719.6,680 1720.4,680.7 2104.7,296.3 2104.7,294.9 	"/>
	<polygon class="st0" points="1751.6,680 1752.4,680.7 2104.7,328.3 2104.7,326.9 	"/>
	<polygon class="st0" points="1783.6,680 1784.4,680.7 2104.7,360.3 2104.7,358.9 	"/>
	<polygon class="st0" points="1815.6,680 1816.4,680.7 2104.7,392.3 2104.7,390.9 	"/>
	<polygon class="st0" points="1847.6,680 1848.4,680.7 2104.7,424.3 2104.7,422.9 	"/>
	<polygon class="st0" points="1879.6,680 1880.4,680.7 2104.7,456.3 2104.7,454.9 	"/>
	<polygon class="st0" points="1911.6,680 1912.4,680.7 2104.7,488.3 2104.7,486.9 	"/>
	<polygon class="st0" points="1943.6,680 1944.4,680.7 2104.7,520.3 2104.7,518.9 	"/>
	<polygon class="st0" points="1975.6,680 1976.4,680.7 2104.7,552.3 2104.7,550.9 	"/>
	<polygon class="st0" points="2007.6,680 2008.4,680.7 2104.7,584.3 2104.7,582.9 	"/>
	<polygon class="st0" points="2039.6,680 2040.4,680.7 2104.7,616.3 2104.7,614.9 	"/>
	<polygon class="st0" points="2071.6,680 2072.4,680.7 2104.7,648.3 2104.7,646.9 	"/>
	<polygon class="st0" points="2103.6,680 2104.4,680.7 2104.7,680.3 2104.7,678.9 	"/>
	<polygon class="st0" points="0,0.4 0,1.1 0.4,0.7 	"/>
	<polygon class="st0" points="31.6,0 0,31.6 0,33.1 32.4,0.7 	"/>
	<polygon class="st0" points="63.6,0 0,63.6 0,65.1 64.4,0.7 	"/>
	<polygon class="st0" points="95.6,0 0,95.6 0,97.1 96.4,0.7 	"/>
	<polygon class="st0" points="127.6,0 0,127.6 0,129.1 128.4,0.7 	"/>
	<polygon class="st0" points="159.6,0 0,159.6 0,161.1 160.4,0.7 	"/>
	<polygon class="st0" points="191.6,0 0,191.6 0,193.1 192.4,0.7 	"/>
	<polygon class="st0" points="223.6,0 0,223.6 0,225.1 224.4,0.7 	"/>
	<polygon class="st0" points="255.6,0 0,255.6 0,257.1 256.4,0.7 	"/>
	<polygon class="st0" points="287.6,0 0,287.6 0,289.1 288.4,0.7 	"/>
	<polygon class="st0" points="319.6,0 0,319.6 0,321.1 320.4,0.7 	"/>
	<polygon class="st0" points="351.6,0 0,351.6 0,353.1 352.4,0.7 	"/>
	<polygon class="st0" points="383.6,0 0,383.6 0,385.1 384.4,0.7 	"/>
	<polygon class="st0" points="415.6,0 0,415.6 0,417.1 416.4,0.7 	"/>
	<polygon class="st0" points="447.6,0 0,447.6 0,449.1 448.4,0.7 	"/>
	<polygon class="st0" points="479.6,0 0,479.6 0,481.1 480.4,0.7 	"/>
	<polygon class="st0" points="511.6,0 0,511.6 0,513.1 512.4,0.7 	"/>
	<polygon class="st0" points="543.6,0 0,543.6 0,545.1 544.4,0.7 	"/>
	<polygon class="st0" points="575.6,0 0,575.6 0,577.1 576.4,0.7 	"/>
	<polygon class="st0" points="607.6,0 0,607.6 0,609.1 608.4,0.7 	"/>
	<polygon class="st0" points="639.6,0 0,639.6 0,641.1 640.4,0.7 	"/>
	<polygon class="st0" points="671.6,0 0,671.6 0,673.1 672.4,0.7 	"/>
	
		<rect x="-116.8" y="339.9" transform="matrix(0.7071 -0.7071 0.7071 0.7071 -134.0532 357.0739)" class="st0" width="961.7" height="1"/>
	
		<rect x="-84.8" y="339.9" transform="matrix(0.7071 -0.7071 0.7071 0.7071 -124.6806 379.7014)" class="st0" width="961.7" height="1"/>
	
		<rect x="-52.8" y="339.9" transform="matrix(0.7071 -0.7071 0.7071 0.7071 -115.3081 402.3288)" class="st0" width="961.7" height="1"/>
	
		<rect x="-20.8" y="339.9" transform="matrix(0.7071 -0.7071 0.7071 0.7071 -105.9355 424.9562)" class="st0" width="961.7" height="1"/>
	
		<rect x="11.2" y="339.9" transform="matrix(0.7071 -0.7071 0.7071 0.7071 -96.5629 447.5836)" class="st0" width="961.7" height="1"/>
	
		<rect x="43.2" y="339.9" transform="matrix(0.7071 -0.7071 0.7071 0.7071 -87.1903 470.211)" class="st0" width="961.7" height="1"/>
	
		<rect x="75.2" y="339.9" transform="matrix(0.7071 -0.7071 0.7071 0.7071 -77.8177 492.8384)" class="st0" width="961.7" height="1"/>
	
		<rect x="107.2" y="339.9" transform="matrix(0.7071 -0.7071 0.7071 0.7071 -68.4451 515.4659)" class="st0" width="961.7" height="1"/>
	
		<rect x="139.2" y="339.9" transform="matrix(0.7071 -0.7071 0.7071 0.7071 -59.0726 538.0933)" class="st0" width="961.7" height="1"/>
	
		<rect x="171.2" y="339.9" transform="matrix(0.7071 -0.7071 0.7071 0.7071 -49.7 560.7207)" class="st0" width="961.7" height="1"/>
	
		<rect x="203.2" y="339.9" transform="matrix(0.7071 -0.7071 0.7071 0.7071 -40.3274 583.3481)" class="st0" width="961.7" height="1"/>
	
		<rect x="235.2" y="339.9" transform="matrix(0.7071 -0.7071 0.7071 0.7071 -30.9548 605.9755)" class="st0" width="961.7" height="1"/>
	
		<rect x="267.2" y="339.9" transform="matrix(0.7071 -0.7071 0.7071 0.7071 -21.5822 628.603)" class="st0" width="961.7" height="1"/>
	
		<rect x="299.2" y="339.9" transform="matrix(0.7071 -0.7071 0.7071 0.7071 -12.2096 651.2303)" class="st0" width="961.7" height="1"/>
	
		<rect x="331.2" y="339.9" transform="matrix(0.7071 -0.7071 0.7071 0.7071 -2.8371 673.8578)" class="st0" width="961.7" height="1"/>
	
		<rect x="363.2" y="339.9" transform="matrix(0.7071 -0.7071 0.7071 0.7071 6.5355 696.4852)" class="st0" width="961.7" height="1"/>
	
		<rect x="395.2" y="339.9" transform="matrix(0.7071 -0.7071 0.7071 0.7071 15.9081 719.1126)" class="st0" width="961.7" height="1"/>
	
		<rect x="427.2" y="339.9" transform="matrix(0.7071 -0.7071 0.7071 0.7071 25.2807 741.7401)" class="st0" width="961.7" height="1"/>
	
		<rect x="459.2" y="339.9" transform="matrix(0.7071 -0.7071 0.7071 0.7071 34.6533 764.3674)" class="st0" width="961.7" height="1"/>
	
		<rect x="491.2" y="339.9" transform="matrix(0.7071 -0.7071 0.7071 0.7071 44.0259 786.9949)" class="st0" width="961.7" height="1"/>
	
		<rect x="523.2" y="339.9" transform="matrix(0.7071 -0.7071 0.7071 0.7071 53.3984 809.6223)" class="st0" width="961.7" height="1"/>
	
		<rect x="555.2" y="339.9" transform="matrix(0.7071 -0.7071 0.7071 0.7071 62.771 832.2497)" class="st0" width="961.7" height="1"/>
	
		<rect x="587.2" y="339.9" transform="matrix(0.7071 -0.7071 0.7071 0.7071 72.1436 854.8771)" class="st0" width="961.7" height="1"/>
	
		<rect x="619.2" y="339.9" transform="matrix(0.7071 -0.7071 0.7071 0.7071 81.5162 877.5045)" class="st0" width="961.7" height="1"/>
	
		<rect x="651.2" y="339.9" transform="matrix(0.7071 -0.7071 0.7071 0.7071 90.8888 900.132)" class="st0" width="961.7" height="1"/>
	
		<rect x="683.2" y="339.9" transform="matrix(0.7071 -0.7071 0.7071 0.7071 100.2614 922.7593)" class="st0" width="961.7" height="1"/>
	
		<rect x="715.2" y="339.9" transform="matrix(0.7071 -0.7071 0.7071 0.7071 109.6339 945.3868)" class="st0" width="961.7" height="1"/>
	
		<rect x="747.2" y="339.9" transform="matrix(0.7071 -0.7071 0.7071 0.7071 119.0065 968.0142)" class="st0" width="961.7" height="1"/>
	
		<rect x="779.2" y="339.9" transform="matrix(0.7071 -0.7071 0.7071 0.7071 128.3791 990.6416)" class="st0" width="961.7" height="1"/>
	
		<rect x="811.2" y="339.9" transform="matrix(0.7071 -0.7071 0.7071 0.7071 137.7517 1013.269)" class="st0" width="961.7" height="1"/>
	
		<rect x="843.2" y="339.9" transform="matrix(0.7071 -0.7071 0.7071 0.7071 147.1243 1035.8965)" class="st0" width="961.7" height="1"/>
	
		<rect x="875.2" y="339.9" transform="matrix(0.7071 -0.7071 0.7071 0.7071 156.4969 1058.5238)" class="st0" width="961.7" height="1"/>
	
		<rect x="907.2" y="339.9" transform="matrix(0.7071 -0.7071 0.7071 0.7071 165.8694 1081.1512)" class="st0" width="961.7" height="1"/>
	
		<rect x="939.2" y="339.9" transform="matrix(0.7071 -0.7071 0.7071 0.7071 175.242 1103.7787)" class="st0" width="961.7" height="1"/>
	
		<rect x="971.2" y="339.9" transform="matrix(0.7071 -0.7071 0.7071 0.7071 184.6146 1126.4061)" class="st0" width="961.7" height="1"/>
	
		<rect x="1003.2" y="339.9" transform="matrix(0.7071 -0.7071 0.7071 0.7071 193.9872 1149.0336)" class="st0" width="961.7" height="1"/>
	
		<rect x="1035.2" y="339.9" transform="matrix(0.7071 -0.7071 0.7071 0.7071 203.3598 1171.6609)" class="st0" width="961.7" height="1"/>
	
		<rect x="1067.2" y="339.9" transform="matrix(0.7071 -0.7071 0.7071 0.7071 212.7323 1194.2883)" class="st0" width="961.7" height="1"/>
	
		<rect x="1099.2" y="339.9" transform="matrix(0.7071 -0.7071 0.7071 0.7071 222.1049 1216.9158)" class="st0" width="961.7" height="1"/>
</g>
</svg>
