<svg xmlns="http://www.w3.org/2000/svg" viewBox="0 0 770.59 328.2"><defs><style>.cls-1{fill:#01569e;}.cls-2{fill:#e61e26;}.cls-3{fill:#0056a7;}</style></defs><title>Asset 1</title><g id="Layer_2" data-name="Layer 2"><g id="Layer_1-2" data-name="Layer 1"><g id="Group_80" data-name="Group 80"><path id="Path_17" data-name="Path 17" class="cls-1" d="M230,308h-6.12V277.68H220.5V272h3.37v-7.43a18.41,18.41,0,0,1,1.61-9.34,10.42,10.42,0,0,1,9.26-4.51,14.42,14.42,0,0,1,4.36.76v6.2a12.46,12.46,0,0,0-4.14-.83c-5,0-5,3.52-5,9.87V272h9.13v5.67H230Z"/><path id="Path_18" data-name="Path 18" class="cls-1" d="M247.22,290a12.8,12.8,0,1,0,0-.64c0,.22,0,.43,0,.64m-6.12.08A18.91,18.91,0,1,1,260,309h0a18.88,18.88,0,0,1-18.91-18.86v-.05"/><path id="Path_19" data-name="Path 19" class="cls-1" d="M292.17,275.92h.15a9.26,9.26,0,0,1,8-4.9,10.88,10.88,0,0,1,5.51,1.67l-2.92,5.59a5.94,5.94,0,0,0-3.67-1.6c-6.74,0-7,8.65-7,13.32v18H286V272h6.13Z"/><g id="Group_79" data-name="Group 79"><path id="Path_20" data-name="Path 20" class="cls-2" d="M770.59,251.84c-95.45-24.5-232.71-44.5-385.29-44.31C232.7,207.35,95.44,227.33,0,251.84c66.06-25.82,213.59-54,385.3-53.68C557,197.83,704.55,226,770.59,251.84"/><path id="Path_21" data-name="Path 21" class="cls-1" d="M385.64,168.88l7.16,22H416a.38.38,0,0,1,.38.38.38.38,0,0,1-.15.3l-18.74,13.61,7.16,22a.38.38,0,0,1-.26.47.4.4,0,0,1-.32-.05L385.28,214l-18.73,13.61a.38.38,0,0,1-.53-.09.43.43,0,0,1,0-.33l7.15-22-18.73-13.61a.38.38,0,0,1-.07-.53.36.36,0,0,1,.3-.15h23.15l7.15-22a.39.39,0,0,1,.48-.25.36.36,0,0,1,.24.25"/><path id="Path_22" data-name="Path 22" class="cls-3" d="M146.31,76.32v5.59c0,38.53-27.17,68.13-66.45,68.13S8.93,116.16,8.93,77.26A73.08,73.08,0,0,1,138.87,30.92L126.58,42.65A55.33,55.33,0,0,0,26.43,76.71c0,29.42,24.21,57.34,54.55,57.34,21.77,0,45.23-18.79,46-41.7H90.63v-16Z"/><rect id="Rectangle_770" data-name="Rectangle 770" class="cls-3" x="166.81" y="6.7" width="17.5" height="140.36"/><path id="Path_23" data-name="Path 23" class="cls-3" d="M206.58,0,311.94,110.38V6.7h17.5V152.8L224.08,42.42V147h-17.5Z"/><path id="Path_24" data-name="Path 24" class="cls-3" d="M394,147.05h-17.5V22.73H343.21v-16h84.14v16H394Z"/><path id="Path_25" data-name="Path 25" class="cls-3" d="M526.3,63.29V6.7h17.5V147.06H526.3V79.67H459.47v67.39H442V6.7h17.5V63.29Z"/><path id="Path_26" data-name="Path 26" class="cls-3" d="M563.54,6.7h75.39v16H581.05V62h56.21V78H581.05v53.05h57.89v16h-75.4Z"/><g id="Group_76" data-name="Group 76"><path id="Path_27" data-name="Path 27" class="cls-3" d="M678,73.15h5.59c17.87,0,37.22-3.34,37.22-25.69,0-22-20.84-25.13-38.16-25.13H678ZM747.84,147H726.62L685.29,87.66H678V147H660.54V6.7h21.22c12.47,0,25.88.19,37,6.51a38.85,38.85,0,0,1,18.43,33.51A38.21,38.21,0,0,1,703.54,86Z"/></g><path id="Path_28" data-name="Path 28" class="cls-1" d="M343.91,247l21,48.46L385.94,247l11.71,61h-6.59l-7.42-39.05h-.15l-18.61,41.41-18.52-41.41h-.15l-7.43,39H332.2Z"/><g id="Group_77" data-name="Group 77"><path id="Path_29" data-name="Path 29" class="cls-1" d="M408.46,289.62c0,7,4.14,13.7,11.79,13.7,7.89,0,12-6.35,12-13.62a12,12,0,0,0-11-13c-.37,0-.74,0-1.11,0a12.21,12.21,0,0,0-11.73,12.65c0,.1,0,.2,0,.29M438.09,308H432v-5h-.15a15.14,15.14,0,0,1-12.4,6,17.74,17.74,0,0,1-17.25-18.23c0-.23,0-.45,0-.68,0-10.25,6.5-19.06,17.3-19.06a15.52,15.52,0,0,1,12.32,6.13H432V272h6.13Z"/></g><path id="Path_30" data-name="Path 30" class="cls-1" d="M444,272h7.12l12.71,25.79L475.42,272h7L455.83,328.2h-7l11.64-23.57Z"/><g id="Group_78" data-name="Group 78"><path id="Path_31" data-name="Path 31" class="cls-1" d="M490.38,290a12.8,12.8,0,1,0,0-.64c0,.21,0,.43,0,.64m-6.12.07A18.91,18.91,0,1,1,503.17,309h0a18.88,18.88,0,0,1-18.91-18.86v-.05"/><path id="Path_32" data-name="Path 32" class="cls-1" d="M536.44,275.92h.15a9.28,9.28,0,0,1,8-4.9,10.91,10.91,0,0,1,5.52,1.67l-2.93,5.6a6,6,0,0,0-3.67-1.61c-6.73,0-7,8.65-7,13.32v18H530.3V272h6.13Z"/></g></g></g></g></g></svg>